<?xml version="1.0" standalone="no"?>
<!DOCTYPE svg PUBLIC "-//W3C//DTD SVG 20010904//EN"
 "http://www.w3.org/TR/2001/REC-SVG-20010904/DTD/svg10.dtd">
<svg version="1.0" xmlns="http://www.w3.org/2000/svg"
 width="150.000000pt" height="150.000000pt" viewBox="0 0 150.000000 150.000000"
 preserveAspectRatio="xMidYMid meet">
<metadata>
Created by potrace 1.14, written by Peter Selinger 2001-2017
</metadata>
<g transform="translate(0.000000,150.000000) scale(0.100000,-0.100000)"
fill="#000000" stroke="none">
<path d="M705 1309 c-33 -4 -94 -10 -135 -14 -56 -6 -100 -19 -177 -53 -93
-41 -110 -53 -193 -137 l-92 -92 -20 -106 -20 -106 39 -49 c21 -27 63 -81 93
-120 l55 -71 126 -1 125 0 110 -95 c60 -52 114 -95 120 -95 6 0 17 7 24 15 15
19 40 20 40 2 0 -8 50 -53 112 -100 l112 -87 63 0 c35 0 63 3 63 6 0 3 -22 47
-50 98 -27 51 -50 95 -50 98 0 3 17 17 38 31 195 133 193 131 258 238 l61 102
-48 183 c-26 101 -50 187 -53 192 -3 5 -40 21 -83 37 -43 15 -147 51 -232 81
-157 56 -162 56 -286 43z m325 -113 c244 -85 237 -82 244 -105 19 -67 32 -61
-122 -61 l-140 0 -26 -43 -25 -44 -133 1 -133 1 -19 36 -20 36 25 30 c24 30
26 30 109 29 47 -1 97 -6 112 -10 22 -6 29 -3 43 18 16 24 16 28 0 52 -12 18
-21 23 -33 18 -9 -4 -68 -10 -130 -12 -114 -4 -114 -4 -130 -33 -12 -20 -22
-27 -32 -22 -8 4 -83 10 -167 13 -142 5 -151 6 -139 23 7 9 57 38 112 63 86
40 111 47 208 58 204 22 193 23 396 -48z m-437 -236 c21 -36 42 -71 46 -79 7
-11 42 -14 162 -15 85 -1 161 0 169 2 9 2 27 22 42 46 l25 42 127 1 126 1 10
-40 c6 -21 14 -46 17 -54 5 -13 -8 -15 -88 -12 -52 2 -102 7 -111 12 -17 8
-58 -23 -58 -44 0 -21 41 -52 58 -44 22 11 212 18 212 8 0 -10 -41 -74 -48
-75 -4 0 -71 -2 -150 -2 l-143 -2 -24 37 -25 38 -172 2 -172 3 -44 75 -43 75
-172 1 c-193 0 -201 3 -151 63 l26 31 171 -2 171 -3 39 -65z m-79 -170 c32
-55 52 -80 65 -80 22 0 36 -15 66 -73 22 -40 26 -42 76 -48 30 -4 61 -10 70
-13 22 -9 49 19 49 50 0 29 -39 51 -67 39 -36 -16 -58 -15 -70 2 -26 34 -16
39 92 40 l105 1 27 -37 28 -37 143 0 c86 1 141 -3 139 -8 -2 -6 -64 -53 -139
-105 l-136 -96 36 -70 c20 -38 39 -74 41 -79 2 -5 -37 22 -87 60 l-91 69 -1
68 0 68 -58 -45 c-32 -25 -62 -46 -66 -46 -4 0 -52 39 -107 88 l-99 87 -108 1
c-143 2 -142 2 -142 18 0 8 11 27 24 43 20 23 27 26 47 16 51 -22 92 20 63 64
-12 19 -21 23 -37 18 -12 -4 -39 -10 -60 -12 -30 -4 -43 -13 -60 -39 -12 -19
-24 -34 -27 -34 -3 1 -24 26 -47 57 -40 52 -53 90 -36 106 3 4 77 7 164 7
l157 0 46 -80z"/>
</g>
</svg>
