<?xml version="1.0" encoding="UTF-8"?>
<!DOCTYPE svg PUBLIC "-//W3C//DTD SVG 1.1//EN" "http://www.w3.org/Graphics/SVG/1.1/DTD/svg11.dtd">
<svg xmlns="http://www.w3.org/2000/svg" version="1.1" width="552px" height="117px" style="shape-rendering:geometricPrecision; text-rendering:geometricPrecision; image-rendering:optimizeQuality; fill-rule:evenodd; clip-rule:evenodd" xmlns:xlink="http://www.w3.org/1999/xlink">
<g><path style="opacity:1" fill="#fabd39" d="M 75.5,-0.5 C 78.5,-0.5 81.5,-0.5 84.5,-0.5C 98.5512,5.10815 112.884,10.2748 127.5,15C 128.942,15.3768 129.942,16.2101 130.5,17.5C 130.259,19.8984 130.926,21.8984 132.5,23.5C 133.698,27.7668 134.698,32.1002 135.5,36.5C 135.259,38.8984 135.926,40.8984 137.5,42.5C 137.5,43.1667 137.5,43.8333 137.5,44.5C 137.41,47.1522 138.076,49.4855 139.5,51.5C 140.622,53.2884 140.789,55.2884 140,57.5C 135.75,63.6645 131.75,69.9979 128,76.5C 120.493,81.2528 113.16,86.2528 106,91.5C 105.333,92.5 105.333,93.5 106,94.5C 109.294,100.253 112.46,106.087 115.5,112C 115.167,112.333 114.833,112.667 114.5,113C 110.167,113.667 105.833,113.667 101.5,113C 94.9778,107.969 88.6445,102.803 82.5,97.5C 82.0269,96.0937 81.0269,95.427 79.5,95.5C 79.6567,94.1266 79.49,92.7932 79,91.5C 78.2828,92.0442 77.7828,92.7109 77.5,93.5C 74.0355,97.6824 71.0355,97.349 68.5,92.5C 67.4154,90.4131 65.7488,89.0798 63.5,88.5C 62.5,88.1667 61.8333,87.5 61.5,86.5C 60.7377,84.7376 59.4044,83.7376 57.5,83.5C 54.7895,81.0554 51.9562,78.7221 49,76.5C 41.2462,77.6474 33.4128,77.8141 25.5,77C 18.5453,69.2246 12.212,61.058 6.5,52.5C 7.26535,49.9039 7.59868,47.2372 7.5,44.5C 8.01026,39.7887 8.84359,35.122 10,30.5C 10.3826,29.944 10.8826,29.6107 11.5,29.5C 17.8333,25.1667 23.1667,19.8333 27.5,13.5C 29.0269,13.573 30.0269,12.9063 30.5,11.5C 33.3777,9.89456 36.3777,8.56123 39.5,7.5C 42.491,7.83372 44.8243,6.83372 46.5,4.5C 46.9175,3.77842 47.5842,3.27842 48.5,3C 57.6881,2.15516 66.6881,0.988492 75.5,-0.5 Z M 103.5,13.5 C 104.78,14.9313 106.447,15.5979 108.5,15.5C 109.391,16.1098 110.391,16.4431 111.5,16.5C 113.214,17.7384 115.214,18.405 117.5,18.5C 120.185,19.6285 122.852,20.9618 125.5,22.5C 126.497,24.8109 126.997,27.1443 127,29.5C 118.245,28.3503 109.412,28.1837 100.5,29C 98.4436,31.6141 96.7769,34.4475 95.5,37.5C 86.4161,37.8044 77.4161,37.4711 68.5,36.5C 65.6374,32.7568 65.9707,29.2568 69.5,26C 75.4908,25.5005 81.4908,25.3338 87.5,25.5C 89.594,27.9938 91.594,27.9938 93.5,25.5C 94.1667,25.5 94.5,25.1667 94.5,24.5C 95.1471,23.7261 95.4805,22.7261 95.5,21.5C 95.6598,19.6455 94.9931,18.3121 93.5,17.5C 91.594,15.0062 89.594,15.0062 87.5,17.5C 80.4921,17.3337 73.4921,17.5004 66.5,18C 65.944,18.3826 65.6107,18.8826 65.5,19.5C 64.0937,19.9731 63.427,20.9731 63.5,22.5C 62.3523,23.895 61.3523,23.7284 60.5,22C 50.8391,21.5002 41.1724,21.3335 31.5,21.5C 33.0714,18.7687 35.4048,16.9354 38.5,16C 42.9531,14.2737 47.2864,12.2737 51.5,10C 63.103,8.0661 74.7696,7.39944 86.5,8C 92.1651,9.94424 97.8318,11.7776 103.5,13.5 Z M 130.5,45.5 C 125.025,46.4889 119.358,46.8222 113.5,46.5C 111.5,45.1667 109.5,45.1667 107.5,46.5C 106.007,47.3121 105.34,48.6455 105.5,50.5C 105.52,51.7261 105.853,52.7261 106.5,53.5C 107.312,54.9931 108.645,55.6598 110.5,55.5C 111.726,55.4805 112.726,55.1471 113.5,54.5C 119.69,54.1771 125.69,54.5104 131.5,55.5C 130.18,57.4632 128.846,59.4632 127.5,61.5C 117.628,61.7935 107.628,61.4602 97.5,60.5C 97.0383,58.2433 96.0383,56.2433 94.5,54.5C 82.8476,53.6675 71.1809,53.1675 59.5,53C 56.9337,48.6839 54.2671,44.5172 51.5,40.5C 51.5858,39.5041 51.2524,38.6708 50.5,38C 39.7869,37.2132 29.1202,37.3799 18.5,38.5C 17.4489,37.7777 16.7822,36.7777 16.5,35.5C 17.6253,33.8712 18.9586,32.3712 20.5,31C 31.8333,30.3333 43.1667,30.3333 54.5,31C 57.5,36 60.5,41 63.5,46C 75.1667,46.6667 86.8333,46.6667 98.5,46C 99.9164,43.1651 101.583,40.4985 103.5,38C 111.827,37.5003 120.16,37.3336 128.5,37.5C 128.802,40.3725 129.469,43.0392 130.5,45.5 Z M 46.5,46.5 C 48.8245,52.4862 52.1578,57.8195 56.5,62.5C 58.3293,61.7176 59.8293,62.3843 61,64.5C 62.4545,67.9121 64.2879,71.0788 66.5,74C 71.8384,74.735 77.1717,75.0683 82.5,75C 85.4756,70.9063 84.809,67.573 80.5,65C 77.9676,64.9968 75.4676,65.4968 73,66.5C 70.7911,66.4428 69.2911,65.4428 68.5,63.5C 75.7347,62.189 83.068,62.189 90.5,63.5C 91.2485,65.3325 92.2485,66.9991 93.5,68.5C 102.991,69.33 112.658,69.83 122.5,70C 121.944,70.3826 121.611,70.8826 121.5,71.5C 119.596,71.7376 118.262,72.7376 117.5,74.5C 115.973,74.427 114.973,75.0937 114.5,76.5C 112.973,76.427 111.973,77.0937 111.5,78.5C 108.865,79.8109 106.531,81.4776 104.5,83.5C 102.973,83.427 101.973,84.0937 101.5,85.5C 99.7697,86.0256 98.4363,87.0256 97.5,88.5C 96.4138,88.62 95.7472,89.2867 95.5,90.5C 95.5427,91.4164 95.8761,92.0831 96.5,92.5C 98.1534,95.8068 99.8201,99.1401 101.5,102.5C 101.167,102.5 100.833,102.5 100.5,102.5C 96.5,99.5 92.5,96.5 88.5,93.5C 87.8333,92.1667 86.8333,91.1667 85.5,90.5C 85.5,87.1667 85.5,83.8333 85.5,80.5C 86.7125,79.5029 86.5458,78.5029 85,77.5C 84.2828,78.0442 83.7828,78.7109 83.5,79.5C 82.8333,79.5 82.5,79.8333 82.5,80.5C 80.2512,81.0798 78.5846,82.4131 77.5,84.5C 75.9064,84.9195 74.4064,85.5862 73,86.5C 70.683,85.0148 68.5164,83.3481 66.5,81.5C 65.7377,79.7376 64.4044,78.7376 62.5,78.5C 60.1051,75.1385 57.1051,72.4719 53.5,70.5C 52.2275,69.5657 50.7275,68.899 49,68.5C 42.2495,68.6688 35.4161,69.0022 28.5,69.5C 28.5489,66.4281 30.0489,63.7614 33,61.5C 40.0543,65.4385 43.0543,63.4385 42,55.5C 41.6174,54.944 41.1174,54.6107 40.5,54.5C 38.5,51.8333 36.5,51.8333 34.5,54.5C 32.1432,54.3367 29.8098,54.5034 27.5,55C 25.9544,57.2568 24.2877,59.4235 22.5,61.5C 21.4787,59.812 20.1454,58.4787 18.5,57.5C 18.573,55.9731 17.9063,54.9731 16.5,54.5C 14.6878,52.5395 13.6878,50.2061 13.5,47.5C 24.4187,46.5234 35.4187,46.1901 46.5,46.5 Z"/></g>
<g><path style="opacity:0.984" fill="#fed890" d="M 46.5,4.5 C 44.8243,6.83372 42.491,7.83372 39.5,7.5C 41.4261,5.70732 43.7594,4.70732 46.5,4.5 Z"/></g>
<g><path style="opacity:0.659" fill="#fbe2a9" d="M 30.5,11.5 C 30.0269,12.9063 29.0269,13.573 27.5,13.5C 27.9731,12.0937 28.9731,11.427 30.5,11.5 Z"/></g>
<g><path style="opacity:0.953" fill="#fddb98" d="M 103.5,13.5 C 105.698,13.1201 107.365,13.7868 108.5,15.5C 106.447,15.5979 104.78,14.9313 103.5,13.5 Z"/></g>
<g><path style="opacity:0.561" fill="#fae7bd" d="M 93.5,17.5 C 91.5,17.5 89.5,17.5 87.5,17.5C 89.594,15.0062 91.594,15.0062 93.5,17.5 Z"/></g>
<g><path style="opacity:0.753" fill="#fbe2a9" d="M 111.5,16.5 C 113.898,16.2594 115.898,16.9261 117.5,18.5C 115.214,18.405 113.214,17.7384 111.5,16.5 Z"/></g>
<g><path style="opacity:0.855" fill="#fcdb91" d="M 130.5,17.5 C 131.738,19.2143 132.405,21.2143 132.5,23.5C 130.926,21.8984 130.259,19.8984 130.5,17.5 Z"/></g>
<g><path style="opacity:0.294" fill="#fae7bb" d="M 65.5,19.5 C 65.573,21.0269 64.9063,22.0269 63.5,22.5C 63.427,20.9731 64.0937,19.9731 65.5,19.5 Z"/></g>
<g><path style="opacity:0.608" fill="#fadd97" d="M 93.5,17.5 C 94.9931,18.3121 95.6598,19.6455 95.5,21.5C 95.4805,22.7261 95.1471,23.7261 94.5,24.5C 94.552,22.0971 94.2186,19.7638 93.5,17.5 Z"/></g>
<g><path style="opacity:0.84" fill="#fdd788" d="M 30.5,21.5 C 30.8333,22.8333 31.1667,22.8333 31.5,21.5C 41.1724,21.3335 50.8391,21.5002 60.5,22C 61.3523,23.7284 62.3523,23.895 63.5,22.5C 63.26,25.2933 62.26,25.7933 60.5,24C 50.1506,23.8323 39.8173,23.3323 29.5,22.5C 29.6236,21.8933 29.9569,21.56 30.5,21.5 Z"/></g>
<g><path style="opacity:0.965" fill="#fcc95f" d="M 27.5,13.5 C 23.1667,19.8333 17.8333,25.1667 11.5,29.5C 16.5,23.8333 21.8333,18.5 27.5,13.5 Z"/></g>
<g><path style="opacity:0.851" fill="#fcdfa3" d="M 87.5,25.5 C 89.5,25.5 91.5,25.5 93.5,25.5C 91.594,27.9938 89.594,27.9938 87.5,25.5 Z"/></g>
<g><path style="opacity:0.992" fill="#1f1f1f" d="M 332.5,36.5 C 328.167,36.5 323.833,36.5 319.5,36.5C 318.92,32.351 319.586,28.6843 321.5,25.5C 325.123,24.2418 328.79,24.2418 332.5,25.5C 332.551,29.2956 332.551,32.9623 332.5,36.5 Z"/></g>
<g><path style="opacity:0.996" fill="#202020" d="M 378.5,30.5 C 378.738,32.4044 379.738,33.7377 381.5,34.5C 382.167,34.5 382.5,34.8333 382.5,35.5C 382.567,36.9587 382.234,38.2921 381.5,39.5C 379.337,41.0828 377.004,42.4161 374.5,43.5C 373.609,42.8902 372.609,42.5569 371.5,42.5C 371.167,40.1667 369.833,38.8333 367.5,38.5C 364.069,37.3163 360.735,37.8163 357.5,40C 355.925,43.533 356.925,46.1996 360.5,48C 369.311,49.9847 376.811,54.1513 383,60.5C 388.702,73.7397 384.869,82.9063 371.5,88C 357.391,91.6199 346.724,86.9532 339.5,74C 342.837,71.3294 346.504,69.1627 350.5,67.5C 354.814,74.4959 360.814,76.6626 368.5,74C 371.311,70.7065 370.978,67.7065 367.5,65C 361.833,62.6667 356.167,60.3333 350.5,58C 341.612,51.6618 339.445,43.4951 344,33.5C 354.696,22.8078 366.196,21.8078 378.5,30.5 Z"/></g>
<g><path style="opacity:0.997" fill="#1f1f1f" d="M 195.5,25.5 C 200.214,25.1734 204.88,25.5067 209.5,26.5C 218.5,46.5 227.5,66.5 236.5,86.5C 236.291,87.086 235.957,87.586 235.5,88C 231.046,88.4466 226.379,88.4466 221.5,88C 219.562,84.7905 217.895,81.4572 216.5,78C 207.167,77.3333 197.833,77.3333 188.5,78C 187.089,81.4883 185.423,84.8217 183.5,88C 178.581,88.8015 173.748,88.6349 169,87.5C 177.506,66.8074 186.339,46.1407 195.5,25.5 Z M 204.5,47.5 C 205.969,52.5738 207.636,57.5738 209.5,62.5C 210.401,63.2905 211.068,64.2905 211.5,65.5C 208.342,64.9986 205.009,64.9986 201.5,65.5C 198.731,65.4714 196.397,64.8048 194.5,63.5C 194.5,62.8333 194.833,62.5 195.5,62.5C 196.988,57.5329 198.988,52.8662 201.5,48.5C 201.56,49.0431 201.893,49.3764 202.5,49.5C 203.182,48.7573 203.849,48.0906 204.5,47.5 Z"/></g>
<g><path style="opacity:0.995" fill="#1c1c1c" d="M 301.5,41.5 C 304.287,42.4767 307.287,42.81 310.5,42.5C 310.5,45.8333 310.5,49.1667 310.5,52.5C 306.988,51.9455 303.988,52.6122 301.5,54.5C 302.295,61.0869 302.795,67.7536 303,74.5C 304.699,75.4061 306.533,75.7394 308.5,75.5C 310.842,79.1163 311.175,83.1163 309.5,87.5C 305.22,88.5396 300.887,88.7062 296.5,88C 291.929,86.4271 289.096,83.2604 288,78.5C 287.5,70.1733 287.334,61.84 287.5,53.5C 285.735,52.5386 283.735,52.2053 281.5,52.5C 281.5,49.1667 281.5,45.8333 281.5,42.5C 283.735,42.7947 285.735,42.4614 287.5,41.5C 287.5,37.8333 287.5,34.1667 287.5,30.5C 292.214,30.1734 296.88,30.5067 301.5,31.5C 302.739,34.8299 302.739,38.1632 301.5,41.5 Z"/></g>
<g><path style="opacity:0.718" fill="#979797" d="M 378.5,30.5 C 380.262,31.2623 381.262,32.5956 381.5,34.5C 379.738,33.7377 378.738,32.4044 378.5,30.5 Z"/></g>
<g><path style="opacity:0.016" fill="#f8f6f2" d="M 16.5,35.5 C 16.7822,36.7777 17.4489,37.7777 18.5,38.5C 17.5,38.5 16.5,38.5 15.5,38.5C 15.2627,37.209 15.596,36.209 16.5,35.5 Z"/></g>
<g><path style="opacity:0.738" fill="#595959" d="M 321.5,25.5 C 319.586,28.6843 318.92,32.351 319.5,36.5C 323.833,36.5 328.167,36.5 332.5,36.5C 328.03,37.4861 323.363,37.8195 318.5,37.5C 318.5,33.1667 318.5,28.8333 318.5,24.5C 319.791,24.2627 320.791,24.596 321.5,25.5 Z"/></g>
<g><path style="opacity:0.714" fill="#9c9c9c" d="M 382.5,35.5 C 385.453,37.5635 385.12,38.8969 381.5,39.5C 382.234,38.2921 382.567,36.9587 382.5,35.5 Z"/></g>
<g><path style="opacity:0.268" fill="#f9e6b7" d="M 68.5,36.5 C 77.4161,37.4711 86.4161,37.8044 95.5,37.5C 91.1795,38.1658 86.6795,38.4991 82,38.5C 77.1139,38.4927 72.6139,37.8261 68.5,36.5 Z"/></g>
<g><path style="opacity:0.548" fill="#fae0a4" d="M 51.5,40.5 C 39.4016,39.8522 27.4016,39.1855 15.5,38.5C 16.5,38.5 17.5,38.5 18.5,38.5C 29.1202,37.3799 39.7869,37.2132 50.5,38C 51.2524,38.6708 51.5858,39.5041 51.5,40.5 Z"/></g>
<g><path style="opacity:0.898" fill="#7e7e7e" d="M 367.5,38.5 C 369.833,38.8333 371.167,40.1667 371.5,42.5C 369.833,41.5 368.5,40.1667 367.5,38.5 Z"/></g>
<g><path style="opacity:0.733" fill="#fbe1a7" d="M 135.5,36.5 C 136.738,38.2143 137.405,40.2143 137.5,42.5C 135.926,40.8984 135.259,38.8984 135.5,36.5 Z"/></g>
<g><path style="opacity:0.004" fill="#f7f8f7" d="M 303.5,39.5 C 304.833,40.1667 304.833,40.1667 303.5,39.5 Z"/></g>
<g><path style="opacity:0.006" fill="#f7f8f7" d="M 322.5,40.5 C 324.288,39.3775 326.288,39.2109 328.5,40C 326.527,40.4955 324.527,40.6621 322.5,40.5 Z"/></g>
<g><path style="opacity:0.479" fill="#919191" d="M 257.5,49.5 C 257.539,50.7562 257.039,51.7562 256,52.5C 255.502,49.1832 255.335,45.8499 255.5,42.5C 251.167,42.5 246.833,42.5 242.5,42.5C 242.5,57.5 242.5,72.5 242.5,87.5C 241.504,72.3424 241.17,57.0091 241.5,41.5C 246.5,41.5 251.5,41.5 256.5,41.5C 256.194,44.3854 256.527,47.0521 257.5,49.5 Z"/></g>
<g><path style="opacity:0.995" fill="#181818" d="M 267.5,41.5 C 269.833,41.5 272.167,41.5 274.5,41.5C 274.5,45.8333 274.5,50.1667 274.5,54.5C 271.615,54.1936 268.948,54.5269 266.5,55.5C 261.36,57.8195 258.194,61.8195 257,67.5C 256.5,74.4921 256.334,81.4921 256.5,88.5C 251.685,87.7883 247.018,87.4549 242.5,87.5C 242.5,72.5 242.5,57.5 242.5,42.5C 246.833,42.5 251.167,42.5 255.5,42.5C 255.335,45.8499 255.502,49.1832 256,52.5C 257.039,51.7562 257.539,50.7562 257.5,49.5C 259.347,44.9876 262.68,42.321 267.5,41.5 Z"/></g>
<g><path style="opacity:0.742" fill="#858585" d="M 267.5,41.5 C 269.948,40.5269 272.615,40.1936 275.5,40.5C 275.5,45.5 275.5,50.5 275.5,55.5C 272.5,55.5 269.5,55.5 266.5,55.5C 268.948,54.5269 271.615,54.1936 274.5,54.5C 274.5,50.1667 274.5,45.8333 274.5,41.5C 272.167,41.5 269.833,41.5 267.5,41.5 Z"/></g>
<g><path style="opacity:0.996" fill="#212121" d="M 432.5,48.5 C 433.562,50.2341 433.562,51.9008 432.5,53.5C 430.249,55.2099 427.749,56.5432 425,57.5C 417.017,51.2962 410.683,52.6296 406,61.5C 405.366,64.5547 405.532,67.5547 406.5,70.5C 406.5,72.5 407.5,73.5 409.5,73.5C 414.788,76.2498 419.955,75.9165 425,72.5C 428.834,73.5008 432.334,75.1675 435.5,77.5C 429.439,87.0334 420.773,90.5334 409.5,88C 395.077,83.3281 389.244,73.4948 392,58.5C 392.663,54.9647 394.163,51.9647 396.5,49.5C 398.749,48.9202 400.415,47.5869 401.5,45.5C 408.467,40.6789 416.134,39.5122 424.5,42C 427.936,43.2739 430.603,45.4406 432.5,48.5 Z"/></g>
<g><path style="opacity:0.996" fill="#1a1a1a" d="M 473.5,44.5 C 473.56,45.0431 473.893,45.3764 474.5,45.5C 475.386,44.675 475.719,43.675 475.5,42.5C 479.833,42.5 484.167,42.5 488.5,42.5C 488.5,57.5 488.5,72.5 488.5,87.5C 484.416,87.6666 480.083,87.6666 475.5,87.5C 475.762,86.0222 475.429,84.6888 474.5,83.5C 473.893,83.6236 473.56,83.9569 473.5,84.5C 470.773,87.6048 467.273,88.9382 463,88.5C 448.128,87.4605 440.628,79.4605 440.5,64.5C 442.377,46.1195 452.377,38.6195 470.5,42C 471.942,42.3768 472.942,43.2101 473.5,44.5 Z M 474.5,70.5 C 472.833,71.5 471.5,72.8333 470.5,74.5C 461.674,77.2528 456.341,74.0861 454.5,65C 456.046,55.5616 461.38,52.2283 470.5,55C 475.007,59.3542 476.341,64.5209 474.5,70.5 Z"/></g>
<g><path style="opacity:0.994" fill="#191919" d="M 535.5,87.5 C 533.5,87.5 531.5,87.5 529.5,87.5C 529.827,77.6522 529.494,67.9856 528.5,58.5C 527.793,55.4715 525.793,53.8048 522.5,53.5C 519.533,54.3169 516.866,55.6503 514.5,57.5C 513.094,57.9731 512.427,58.9731 512.5,60.5C 512.414,69.1504 512.414,77.6504 512.5,86C 511.953,86.9246 511.287,87.7579 510.5,88.5C 508.591,87.6518 506.591,87.3184 504.5,87.5C 502.5,87.5 500.5,87.5 498.5,87.5C 498.5,72.5 498.5,57.5 498.5,42.5C 502.833,42.5 507.167,42.5 511.5,42.5C 511.5,44.1667 511.5,45.8333 511.5,47.5C 512.301,49.7929 512.968,49.4596 513.5,46.5C 521.864,38.6278 530.364,38.6278 539,46.5C 540,48.5 541,50.5 542,52.5C 542.178,63.7429 542.678,74.9095 543.5,86C 542.953,86.9246 542.287,87.7579 541.5,88.5C 539.591,87.6518 537.591,87.3184 535.5,87.5 Z"/></g>
<g><path style="opacity:0.24" fill="#b1b1b1" d="M 287.5,41.5 C 285.735,42.4614 283.735,42.7947 281.5,42.5C 281.5,45.8333 281.5,49.1667 281.5,52.5C 281.5,52.8333 281.5,53.1667 281.5,53.5C 280.517,49.7016 280.183,45.7016 280.5,41.5C 282.833,41.5 285.167,41.5 287.5,41.5 Z"/></g>
<g><path style="opacity:0.736" fill="#5c5c5c" d="M 301.5,41.5 C 304.833,41.5 308.167,41.5 311.5,41.5C 311.5,45.5 311.5,49.5 311.5,53.5C 308.061,53.2529 304.728,53.5863 301.5,54.5C 303.988,52.6122 306.988,51.9455 310.5,52.5C 310.5,49.1667 310.5,45.8333 310.5,42.5C 307.287,42.81 304.287,42.4767 301.5,41.5 Z"/></g>
<g><path style="opacity:0.734" fill="#585858" d="M 332.5,42.5 C 328.167,42.5 323.833,42.5 319.5,42.5C 319.171,57.676 319.504,72.676 320.5,87.5C 320.44,88.0431 320.107,88.3764 319.5,88.5C 318.501,72.8475 318.167,57.1808 318.5,41.5C 323.363,41.1805 328.03,41.5139 332.5,42.5 Z"/></g>
<g><path style="opacity:0.994" fill="#121212" d="M 332.5,42.5 C 332.176,57.0785 332.51,71.5785 333.5,86C 332.953,86.9246 332.287,87.7579 331.5,88.5C 327.692,87.6409 324.025,87.3076 320.5,87.5C 319.504,72.676 319.171,57.676 319.5,42.5C 323.833,42.5 328.167,42.5 332.5,42.5 Z"/></g>
<g><path style="opacity:0.238" fill="#b2b2b2" d="M 488.5,87.5 C 488.5,72.5 488.5,57.5 488.5,42.5C 484.167,42.5 479.833,42.5 475.5,42.5C 475.719,43.675 475.386,44.675 474.5,45.5C 473.893,45.3764 473.56,45.0431 473.5,44.5C 474.404,43.791 474.737,42.791 474.5,41.5C 479.5,41.5 484.5,41.5 489.5,41.5C 489.83,57.0091 489.496,72.3424 488.5,87.5 Z"/></g>
<g><path style="opacity:0.729" fill="#626262" d="M 511.5,42.5 C 507.167,42.5 502.833,42.5 498.5,42.5C 498.5,57.5 498.5,72.5 498.5,87.5C 500.5,87.5 502.5,87.5 504.5,87.5C 502.393,88.4682 500.059,88.8016 497.5,88.5C 497.5,72.8333 497.5,57.1667 497.5,41.5C 502.363,41.1805 507.03,41.5139 511.5,42.5 Z"/></g>
<g><path style="opacity:0.118" fill="#b2b2b2" d="M 371.5,42.5 C 372.609,42.5569 373.609,42.8902 374.5,43.5C 373.221,44.7152 372.221,44.3818 371.5,42.5 Z"/></g>
<g><path style="opacity:0.18" fill="#cfcfcf" d="M 203.5,45.5 C 202.833,45.5 202.5,45.8333 202.5,46.5C 202.167,46.5 201.833,46.5 201.5,46.5C 201.711,44.5759 202.377,44.2426 203.5,45.5 Z"/></g>
<g><path style="opacity:0.011" fill="#f8f7f4" d="M 46.5,46.5 C 35.4187,46.1901 24.4187,46.5234 13.5,47.5C 18.6238,46.1714 24.1238,45.5048 30,45.5C 35.6771,45.5006 41.1771,45.8339 46.5,46.5 Z"/></g>
<g><path style="opacity:0.029" fill="#f8f5ed" d="M 130.5,45.5 C 131.043,45.56 131.376,45.8933 131.5,46.5C 125.346,47.8166 119.346,47.8166 113.5,46.5C 119.358,46.8222 125.025,46.4889 130.5,45.5 Z"/></g>
<g><path style="opacity:0.004" fill="#e9e9e9" d="M 202.5,46.5 C 203.492,46.3284 204.158,46.6618 204.5,47.5C 203.849,48.0906 203.182,48.7573 202.5,49.5C 201.893,49.3764 201.56,49.0431 201.5,48.5C 202.338,48.1583 202.672,47.4916 202.5,46.5 Z"/></g>
<g><path style="opacity:0.22" fill="#fae7bc" d="M 107.5,46.5 C 106.781,48.7638 106.448,51.0971 106.5,53.5C 105.853,52.7261 105.52,51.7261 105.5,50.5C 105.34,48.6455 106.007,47.3121 107.5,46.5 Z"/></g>
<g><path style="opacity:0.773" fill="#797979" d="M 401.5,45.5 C 400.415,47.5869 398.749,48.9202 396.5,49.5C 397.585,47.4131 399.251,46.0798 401.5,45.5 Z"/></g>
<g><path style="opacity:0.482" fill="#8c8c8c" d="M 513.5,46.5 C 512.968,49.4596 512.301,49.7929 511.5,47.5C 512.167,47.1667 512.833,46.8333 513.5,46.5 Z"/></g>
<g><path style="opacity:0.761" fill="#fce4b1" d="M 7.5,44.5 C 7.59868,47.2372 7.26535,49.9039 6.5,52.5C 5.90326,52.2648 5.56993,51.7648 5.5,51C 5.99015,48.6539 6.65682,46.4872 7.5,44.5 Z"/></g>
<g><path style="opacity:0.588" fill="#fbdc97" d="M 137.5,44.5 C 138.924,46.5145 139.59,48.8478 139.5,51.5C 138.076,49.4855 137.41,47.1522 137.5,44.5 Z"/></g>
<g><path style="opacity:0.898" fill="#6e6e6e" d="M 432.5,48.5 C 436.352,50.4551 436.352,52.1217 432.5,53.5C 433.562,51.9008 433.562,50.2341 432.5,48.5 Z"/></g>
<g><path style="opacity:0.724" fill="#5c5c5c" d="M 281.5,53.5 C 281.5,53.1667 281.5,52.8333 281.5,52.5C 283.735,52.2053 285.735,52.5386 287.5,53.5C 285.611,54.3799 283.611,54.3799 281.5,53.5 Z"/></g>
<g><path style="opacity:0.827" fill="#fcdd9a" d="M 40.5,54.5 C 38.5,54.5 36.5,54.5 34.5,54.5C 36.5,51.8333 38.5,51.8333 40.5,54.5 Z"/></g>
<g><path style="opacity:0.016" fill="#f8f6f4" d="M 113.5,54.5 C 119.678,53.1826 126.012,53.1826 132.5,54.5C 132.376,55.1067 132.043,55.44 131.5,55.5C 125.69,54.5104 119.69,54.1771 113.5,54.5 Z"/></g>
<g><path style="opacity:0.004" fill="#f7f8f7" d="M 303.5,54.5 C 304.833,55.1667 304.833,55.1667 303.5,54.5 Z"/></g>
<g><path style="opacity:0.408" fill="#fae3ac" d="M 16.5,54.5 C 17.9063,54.9731 18.573,55.9731 18.5,57.5C 17.0937,57.0269 16.427,56.0269 16.5,54.5 Z"/></g>
<g><path style="opacity:0.004" fill="#d7d7d7" d="M 514.5,57.5 C 514.573,59.0269 513.906,60.0269 512.5,60.5C 512.427,58.9731 513.094,57.9731 514.5,57.5 Z"/></g>
<g><path style="opacity:0.267" fill="#f8e6b7" d="M 90.5,63.5 C 83.068,62.189 75.7347,62.189 68.5,63.5C 67.9569,63.44 67.6236,63.1067 67.5,62.5C 71.3333,62.1667 75.1667,61.8333 79,61.5C 83.229,61.5102 87.0623,62.1768 90.5,63.5 Z"/></g>
<g><path style="opacity:0.561" fill="#f8d67f" d="M 97.5,60.5 C 107.628,61.4602 117.628,61.7935 127.5,61.5C 122.678,62.166 117.678,62.4993 112.5,62.5C 107.119,62.4942 102.119,61.8275 97.5,60.5 Z"/></g>
<g><path style="opacity:0.745" fill="#5d5d5d" d="M 194.5,63.5 C 196.397,64.8048 198.731,65.4714 201.5,65.5C 205.009,64.9986 208.342,64.9986 211.5,65.5C 205.69,66.4896 199.69,66.8229 193.5,66.5C 193.263,65.209 193.596,64.209 194.5,63.5 Z"/></g>
<g><path style="opacity:0.542" fill="#f8d881" d="M 93.5,68.5 C 103.5,68.5 113.5,68.5 123.5,68.5C 123.715,70.1788 123.048,71.1788 121.5,71.5C 121.611,70.8826 121.944,70.3826 122.5,70C 112.658,69.83 102.991,69.33 93.5,68.5 Z"/></g>
<g><path style="opacity:0.574" fill="#fadd97" d="M 53.5,70.5 C 44.9832,70.8261 36.6499,70.4927 28.5,69.5C 35.4161,69.0022 42.2495,68.6688 49,68.5C 50.7275,68.899 52.2275,69.5657 53.5,70.5 Z"/></g>
<g><path style="opacity:0.78" fill="#959595" d="M 406.5,70.5 C 407.833,71.1667 408.833,72.1667 409.5,73.5C 407.5,73.5 406.5,72.5 406.5,70.5 Z"/></g>
<g><path style="opacity:0.478" fill="#fbe2ab" d="M 121.5,71.5 C 120.738,73.2624 119.404,74.2624 117.5,74.5C 118.262,72.7376 119.596,71.7376 121.5,71.5 Z"/></g>
<g><path style="opacity:0.004" fill="#f7f8f7" d="M 303.5,72.5 C 304.833,73.1667 304.833,73.1667 303.5,72.5 Z"/></g>
<g><path style="opacity:0.773" fill="#6f6f6f" d="M 474.5,70.5 C 474.167,72.8333 472.833,74.1667 470.5,74.5C 471.5,72.8333 472.833,71.5 474.5,70.5 Z"/></g>
<g><path style="opacity:0.744" fill="#696969" d="M 308.5,75.5 C 309.209,74.596 310.209,74.2627 311.5,74.5C 312.097,79.294 311.43,83.6273 309.5,87.5C 311.175,83.1163 310.842,79.1163 308.5,75.5 Z"/></g>
<g><path style="opacity:0.6" fill="#fbe3ac" d="M 114.5,76.5 C 114.027,77.9063 113.027,78.573 111.5,78.5C 111.973,77.0937 112.973,76.427 114.5,76.5 Z"/></g>
<g><path style="opacity:0.004" fill="#f9eed4" d="M 62.5,78.5 C 64.4044,78.7376 65.7377,79.7376 66.5,81.5C 64.5956,81.2624 63.2623,80.2624 62.5,78.5 Z"/></g>
<g><path style="opacity:0.014" fill="#f9f2e3" d="M 85.5,80.5 C 85.1583,79.6618 84.4916,79.3284 83.5,79.5C 83.7828,78.7109 84.2828,78.0442 85,77.5C 86.5458,78.5029 86.7125,79.5029 85.5,80.5 Z"/></g>
<g><path style="opacity:0.678" fill="#fbe3ad" d="M 57.5,83.5 C 59.4044,83.7376 60.7377,84.7376 61.5,86.5C 59.5956,86.2624 58.2623,85.2624 57.5,83.5 Z"/></g>
<g><path style="opacity:0.945" fill="#fcd788" d="M 82.5,80.5 C 81.4154,82.5869 79.7488,83.9202 77.5,84.5C 78.5846,82.4131 80.2512,81.0798 82.5,80.5 Z"/></g>
<g><path style="opacity:0.476" fill="#7e7e7e" d="M 473.5,84.5 C 473.56,83.9569 473.893,83.6236 474.5,83.5C 475.429,84.6888 475.762,86.0222 475.5,87.5C 474.833,86.5 474.167,85.5 473.5,84.5 Z"/></g>
<g><path style="opacity:0.557" fill="#fae4b3" d="M 104.5,83.5 C 104.027,84.9063 103.027,85.573 101.5,85.5C 101.973,84.0937 102.973,83.427 104.5,83.5 Z"/></g>
<g><path style="opacity:0.008" fill="#bfbfbf" d="M 528.5,58.5 C 529.494,67.9856 529.827,77.6522 529.5,87.5C 531.5,87.5 533.5,87.5 535.5,87.5C 533.393,88.4682 531.059,88.8016 528.5,88.5C 528.5,78.5 528.5,68.5 528.5,58.5 Z"/></g>
<g><path style="opacity:0.894" fill="#fcdd9b" d="M 63.5,88.5 C 65.7488,89.0798 67.4154,90.4131 68.5,92.5C 66.2512,91.9202 64.5846,90.5869 63.5,88.5 Z"/></g>
<g><path style="opacity:0.007" fill="#f7f8f7" d="M 90.5,90.5 C 92.2252,90.8425 92.7252,91.8425 92,93.5C 90.9614,92.7562 90.4614,91.7562 90.5,90.5 Z"/></g>
<g><path style="opacity:0.278" fill="#f8eac5" d="M 97.5,88.5 C 96.7659,89.7079 96.4326,91.0413 96.5,92.5C 95.8761,92.0831 95.5427,91.4164 95.5,90.5C 95.7472,89.2867 96.4138,88.62 97.5,88.5 Z"/></g>
<g><path style="opacity:0.4" fill="#fae9c4" d="M 85.5,90.5 C 86.8333,91.1667 87.8333,92.1667 88.5,93.5C 86.5,93.5 85.5,92.5 85.5,90.5 Z"/></g>
<g><path style="opacity:0.251" fill="#f8ecce" d="M 79.5,95.5 C 78.8333,94.8333 78.1667,94.1667 77.5,93.5C 77.7828,92.7109 78.2828,92.0442 79,91.5C 79.49,92.7932 79.6567,94.1266 79.5,95.5 Z"/></g>
<g><path style="opacity:0.42" fill="#fae3ac" d="M 79.5,95.5 C 81.0269,95.427 82.0269,96.0937 82.5,97.5C 80.9731,97.573 79.9731,96.9063 79.5,95.5 Z"/></g>
<g><path style="opacity:0.271" fill="#f9e8bf" d="M 100.5,102.5 C 100.833,102.5 101.167,102.5 101.5,102.5C 103.085,103.002 103.585,104.002 103,105.5C 101.955,104.627 101.122,103.627 100.5,102.5 Z"/></g>
</svg>
